<svg id="Layer_1" data-name="Layer 1" xmlns="http://www.w3.org/2000/svg" viewBox="0 0 1892.009 526.851"><path d="M2539.9,410c-2.77,3.695-2.483,8.337-3.726,12.5-4.772,15.959-14.307,28.368-27.633,37.925-17.175,12.317-36.172,21.615-54.458,32.077q-69.156,39.57-138.547,78.734-53.923,30.594-107.881,61.129c-13,7.362-25.637,15.388-39.261,21.591-28.667,13.052-64.987,6.733-85.91-15.8-11.523-12.411-18.542-27.433-19.573-44.721-.3-4.984-.3-9.988-.347-14.984q-1.256-128.666-.774-257.334c.143-34.813-.394-69.634.311-104.441.291-14.378,1.8-28.655,8.641-41.849,16.756-32.324,46.924-43.7,78.933-40.469,15.425,1.559,28.434,9.851,41.465,17.649q51.281,30.685,102.651,61.219,81.261,48.194,161.766,97.638c16.283,9.979,33.018,19.216,48.9,29.849,19.338,12.943,30.087,31.322,34.323,53.865.17.9-.248,2.077,1.116,2.433ZM2136.075,644.488c3.191,0,7.378.8,11.115-.148,12.123-3.093,22.955-9.2,33.526-15.744,1.547-.958,2.993-1.6,2.569-4.151-2.441-14.656-4.866-29.309-6.861-44.044-3.077-22.728-7.078-45.329-10.476-68.015-3.883-25.915-7.478-51.874-11.3-77.8-4.457-30.2-9.191-60.368-13.479-90.6-2.125-14.977-5.062-29.863-5.96-44.993-.551-9.271-.345-9.278-9.172-11.328a18.887,18.887,0,0,1-2.873-.847c-4.372-1.786-5.666.1-5.649,4.307.025,6.3-.324,12.6-.4,18.9-.427,34.9-2.915,69.725-3.9,104.6-.636,22.588-2,45.133-3.149,67.694-1.285,25.254-1.99,50.537-2.983,75.806-.9,22.934-1.5,45.883-3.186,68.781-.543,7.367,1.436,10.782,8.072,13.363C2119.456,643.187,2127.015,645.86,2136.075,644.488Zm386.849-238.472c.486-6.25-5.474-10.555-12.078-14.1-55.993-30.061-112.161-59.8-168.005-90.133-26.049-14.149-52.92-26.735-78.477-41.813-15.891-9.376-32.82-16.936-48.194-27.244-.534-.358-1.408-.906-1.776-.71-4.363,2.316-3.072,7.653-5.735,10.981-1.026,1.282-1.015,2.737.829,4.179q22.389,17.519,44.539,35.343c17.108,13.764,34.077,27.7,51.169,41.485,13.461,10.856,27.074,21.523,40.515,32.4q30.354,24.576,60.548,49.35c8.9,7.3,17.847,14.529,26.784,21.775,13.166,10.673,25.882,21.9,38.772,32.912,1.206,1.03,2.323,1.877,3.977.883,10.1-6.074,21.171-10.626,29.812-19C2515.178,433.06,2522.2,422.5,2522.924,406.016ZM2190.423,562.3c-.255,2.848,1.276,5.309,1.614,8.1,1.778,14.668,3.936,29.289,5.779,43.949.426,3.388,1.431,3.91,4.365,2.233q34.656-19.806,69.433-39.4c2.729-1.532,3.439-2.7,2.1-5.769-3.378-7.73-6.282-15.667-9.39-23.516-10.525-26.571-20.933-53.189-31.618-79.7-12.357-30.654-25.09-61.157-37.418-91.822-10.773-26.8-21.256-53.71-31.774-80.608-3.307-8.457-3.135-8.243-11.827-7.075-4.619.621-4.77,3.033-4.06,6.512,1.429,7,3.014,13.984,4.19,21.03q6.069,36.371,11.887,72.781c2.785,17.271,5.758,34.518,8.117,51.848,1.763,12.948,3.784,25.841,5.938,38.724,2.293,13.708,4.408,27.45,6.592,41.172,1.2,7.556,2.425,15.155,3.432,22.764C2188.612,549.79,2188.627,556.161,2190.423,562.3Zm267.535-92.221c-.721-1.86-2.4-2.741-3.811-3.863-23.58-18.759-47.328-37.319-70.238-56.895-19.183-16.391-39.581-31.278-58.566-47.91-16.9-14.805-35.162-27.944-52.063-42.805-21.375-18.8-43.666-36.55-65.612-54.694-6.683-5.525-6.662-5.336-12.883.734-2.009,1.96-2.278,3.8-.518,5.531,5.034,4.945,8.033,11.339,12.353,16.763q9.568,12.017,19.438,23.8c12.677,15.18,24.486,31.082,36.812,46.559,12.409,15.58,25.32,30.769,37.46,46.553q40.437,52.575,80.254,105.626c2.379,3.152,4.019,3.8,7.632,1.7,22.334-12.932,44.819-25.6,67.285-38.307C2456.724,472.178,2457.766,471.573,2457.958,470.079Zm-166.671,95.7c1.377-.714,2.877-1.431,4.319-2.249q32.368-18.368,64.722-36.761c8.159-4.64,8.183-4.684,2.464-12.14q-36.945-48.165-73.907-96.318-35.585-46.6-70.929-93.379-16.757-22.083-33.468-44.2c-.869-1.146-1.462-2.7-3.348-2.609-5.7.271-8.715,5.2-6.34,10.368,10.631,23.132,20.426,46.626,30.407,70.04,12.069,28.311,23.318,56.958,35.119,85.372,8.967,21.59,18.039,43.15,26.988,64.753,7.383,17.824,14.237,35.867,21.348,53.805C2289.175,563.758,2289.1,565.566,2291.287,565.78ZM2137,150.667c-33.519-.464-60.884,31.921-59.41,62.289,1.55,31.932,30.261,58.917,63.57,58.032,27.03-.718,59.215-21.2,56.123-68.1C2195.573,177.024,2165.329,150.046,2137,150.667Zm-59.521,277.707h.477c0,52.3.139,104.594-.13,156.889a50.956,50.956,0,0,0,6.439,25.752c.772,1.387,1.7,3.3,3.64,2.786,1.582-.419.906-2.286.967-3.52,1.093-22.216,1.959-44.445,3.255-66.649,1.206-20.664,1.347-41.364,2.651-62.037.885-14.044,1.739-28.131,2.286-42.215.691-17.8,1.289-35.6,2.341-53.377,2.027-34.227,2.953-68.5,4.441-102.744.112-2.587-.53-4.469-3.081-5.626a60.661,60.661,0,0,1-18.045-13.189c-1.127-1.145-2.331-2.93-4.1-2.327-2.066.7-1.1,2.889-1.1,4.4Q2077.444,347.446,2077.475,428.374Zm435.963-54.152c1.213-2.109-.342-3.756-1.384-5.3-5.8-8.588-13.806-14.784-22.547-20.04-19.613-11.792-39.344-23.389-58.979-35.146q-65.949-39.49-131.856-79.053Q2270.826,218,2242.927,201.4c-9.57-5.725-19.1-11.51-28.662-17.255-1.252-.753-2.463-1.882-4.078-.743-2.08,1.467-.063,2.636.394,3.761a56.547,56.547,0,0,1,4.4,24.864c-.168,2.807.649,4.652,3.293,6.006,36.73,18.81,72.832,38.824,109.482,57.766q51.821,26.781,103.263,54.256C2458.519,344.682,2485.935,359.476,2513.438,374.222Z" transform="translate(-647.895 -133.819)" fill="#694310"/><path d="M1485.685,372.746c-12.395,12.73-27.35,15.472-43.287,14.675-5.426-.272-7.826,1.092-9.691,6.758-9.61,29.2-30.624,44.293-60.891,47.143-17.672,1.663-34.549-.84-49.733-10.506-23.308-14.838-34.43-40.989-30.707-68.859,2.119-15.862,9.528-28.778,20.531-40,3.106-3.169,5.339-3.523,7.969.629a118.307,118.307,0,0,0,8.747,11.52c1.888,2.3,2.056,3.865-.319,6.157-18.462,17.819-17.373,49.867,1.687,66.407a39.019,39.019,0,0,0,19.968,9.557c12.269,1.841,24.755,2.416,36.317-2.832,16.736-7.6,25.278-21.258,25.441-39.539.288-32.314.168-64.634-.024-96.949-.025-4.234,1.158-5.413,5.24-5.106a102.527,102.527,0,0,0,14.485,0c3.754-.251,4.8.96,4.778,4.719-.16,24.986-.082,49.974-.082,74.961,0,2.665.111,5.337-.037,7.994-.135,2.447.613,3.859,3.279,3.756,7.633-.3,15.284.651,22.906-.881,13.707-2.755,23.962-14.455,24.094-28.431.184-19.321.141-38.647-.021-57.969-.028-3.281.72-4.346,4.1-4.151a141.4,141.4,0,0,0,15.987,0c3.462-.193,4.427.782,4.4,4.338-.166,25.819-.134,51.64-.069,77.46.028,11.166-1.39,9.5,9.411,9.643,4,.055,8,.077,12-.006,13.885-.291,22.685-9.227,22.7-23.046.019-20.989.153-41.98-.114-62.966-.057-4.487,1.121-5.8,5.525-5.44a127.209,127.209,0,0,0,14.987.043c2.661-.1,3.856.442,3.841,3.48-.114,23.654-.043,47.309-.1,70.964-.01,4.209-1.325,8.195-2.873,12.063-1.348,3.372-.687,4.6,3.265,4.591,13.146-.046,26.292-1.113,39.439-.087,3.817.3,4.455-.444,2.654-4.394-9.627-21.1-10.479-42.332,2.675-62.232,14.6-22.092,36.534-30.6,61.859-26.558,24.116,3.846,40.084,19.423,47.049,42.929,4.49,15.154,2.763,30.278-4.195,44.61-2.76,5.684-2.85,5.7,3.689,5.633,14.462-.157,28.924-.5,43.385-.5,3.493,0,4.485-.945,4.467-4.46-.143-26.653.09-53.308-.222-79.958-.062-5.278,1.487-6.606,6.407-6.123a73.4,73.4,0,0,0,13.48,0c4.086-.355,5.029,1.087,5.005,5.005-.163,26.986.02,53.973-.193,80.958-.035,4.379,1.015,5.885,5.5,5.569,8.893-.627,18.02,1.2,26.555-2.859,11.973-5.689,18.276-15.152,18.4-28.382q.261-27.983-.049-55.969c-.04-3.584.936-4.506,4.375-4.309a124.441,124.441,0,0,0,15.486-.01c3.753-.254,4.714.832,4.688,4.632-.185,26.818-.1,53.639-.1,80.458,0,6.353.006,6.356,6.534,6.358,5,0,10,.1,15-.024,13.345-.327,22.42-9.538,22.462-22.9.067-21.489.1-42.979-.065-64.467-.024-3.245.721-4.248,4.027-4.052a106.667,106.667,0,0,0,15.482-.023c4.282-.371,4.869,1.423,4.846,5.077-.133,21.655-.1,43.311-.042,64.967a44.858,44.858,0,0,1-2.8,15.623c-6.374,17.481-23.435,29.813-42.017,30.045-14.661.182-29.327-.064-43.988.111-3.131.038-3.946-.816-3.9-3.9.046-3.164,1.7-7.63-1.127-9.195-2.184-1.209-4.623,2.948-7.053,4.566-9.186,6.118-19.432,8.426-30.278,8.431q-95.46.048-190.92.015c-44.811,0-89.624-.059-134.435.1-4.152.015-5.549-1.06-5.14-5.188A23.719,23.719,0,0,0,1485.685,372.746ZM1639,328.571c-.217,17.985,12.87,34.06,36.44,34.036,22.214-.023,35.5-16.137,35.529-34.025.032-17.584-17.6-34.385-36.048-34.4C1656.311,294.166,1638.981,310.757,1639,328.571Z" transform="translate(-647.895 -133.819)" fill="#694310"/><path d="M1194.045,299.171q0,34.23-.007,68.459c-.015,12.28-7.641,19.884-19.93,19.888-40.808.014-81.617-.1-122.424.143-4.906.03-6.25-1.458-5.667-5.88.55-4.179-.356-5.317-4.66-2.979a72.267,72.267,0,0,1-35.4,8.755c-24.811-.12-49.624.066-74.435-.129-4.354-.034-5.583,1.1-5.471,5.548.794,31.608-13.589,54.029-42.011,67.423-11.271,5.311-23.492,5.557-35.7,5.247-1.844-.047-2.76-.713-2.748-2.646.041-6.5.1-12.993-.013-19.487-.049-2.838,1.713-2.7,3.625-2.713,6.975-.041,13.943.281,20.826-1.548,17.795-4.728,31.027-21.6,31.038-39.944.02-33.147.1-66.294-.093-99.439-.028-4.879,1.076-6.877,6.313-6.31a74.151,74.151,0,0,0,14.474,0c3.829-.341,4.466,1.188,4.448,4.5-.106,19.821.051,39.643-.138,59.463-.038,4.013.863,5.457,5.187,5.416,22.473-.216,44.948-.079,67.422-.151,1.472,0,3.654,1.1,4.353-1.033.637-1.944-1.48-2.8-2.646-3.848-8.267-7.452-16.512-14.931-24.959-22.175a6.635,6.635,0,0,1-2.447-6.994c2.387-12.567,4.821-25.126,7.033-37.724.435-2.471,2.105-3.178,3.82-4.118,18.125-9.934,37.259-17.345,58.084-17.317,22.057.029,42.213,6.293,55.813,25.358,12.211,17.118,9.813,34.758.232,52.122-2.31,4.186-5.33,7.984-8.068,11.928-1.516,2.184-2.383,3.917,1.6,3.864,11.988-.159,23.976-.345,35.963-.345,11.821,0,23.649.009,35.459.437,4.437.161,5.509-1.162,5.6-5.522.866-42.625.2-85.253.263-127.879.007-4.687,1.3-6.078,5.854-5.7a84.337,84.337,0,0,0,14.478-.007c4.478-.4,5.059,1.48,5.03,5.371C1193.959,252.532,1194.045,275.852,1194.045,299.171Zm-154.939-6.1c-8.7-.539-17.4,2.173-26.215,4.7-9.748,2.8-16.547,7.25-16.358,18.85.055,3.389-.086,5.836,2.611,8.227,13.812,12.242,27.511,24.611,41.216,36.973,1.834,1.654,3.534,2.268,5.732.628,11.969-8.93,22.6-19.076,29.7-32.446,5.9-11.11,3.8-21.044-6.435-28.5C1060.581,295.109,1050.505,292.712,1039.106,293.074Z" transform="translate(-647.895 -133.819)" fill="#694310"/><path d="M771.032,387.169c-20.643,0-41.368,1.17-61.912-.261-35.159-2.45-61.156-31.866-61.176-67.212,0-7.492.091-14.986-.047-22.476-.05-2.734.623-3.8,3.623-3.635A121.117,121.117,0,0,0,667,293.579c4.053-.292,5.415.771,5.346,5.064-.141,8.8-.737,17.646.344,26.432a42.507,42.507,0,0,0,41.974,37.719c35.8.171,71.612-.017,107.417.137,4.107.017,5.025-1.39,5-5.2-.138-25.64.012-51.281-.163-76.92-.025-3.725.837-4.946,4.653-4.667a99.543,99.543,0,0,0,14.975,0c4.367-.34,5.7.969,5.656,5.468-.221,23.973-.143,47.95-.074,71.925a138.431,138.431,0,0,1-.833,15.918c-1.138,10.091-10.823,18.017-22.309,18.053-19.318.06-38.637.016-57.955.016Z" transform="translate(-647.895 -133.819)" fill="#694310"/><path d="M1064.021,537.764c0-8.662.015-17.324-.01-25.985-.006-1.916-.183-3.553,2.706-3.541,3.031.013,2.537,1.886,2.537,3.663.006,15.658-.032,31.316.022,46.973.02,5.864-.261,12.239,6.159,15.194,7.56,3.479,15.56,3.643,23.087-.19,4.061-2.068,5.148-6.413,5.276-10.709.194-6.491.151-12.99.128-19.485-.007-2.022.042-3.523,2.825-3.443,2.635.076,2.394,1.656,2.4,3.344.026,6.5-.141,13,.143,19.485.486,11.136,11.128,17.143,21.1,12.011a10.623,10.623,0,0,0,5.55-7.87c1.258-6.279.49-12.619.742-18.926.061-1.527-.618-3.384,2.189-3.482,2.919-.1,2.69,1.654,2.69,3.542,0,5.987-.194,11.977.565,17.945.757,5.95,4.272,9.534,9.941,10,8.4.685,13.017-1.631,14.837-7.758,1.935-6.513.732-13.244,1.016-19.874.084-1.951-.507-4,2.818-3.87,3.182.122,2.266,2.226,2.3,3.827.1,5.162-.081,10.334.152,15.488.39,8.62,4.364,12.249,12.959,12.192s12.6-3.825,12.818-12.387c.17-6.659.053-13.325.079-19.988.007-1.769-.489-3.651,2.531-3.687,2.926-.036,2.666,1.651,2.673,3.542.026,6.66-.1,13.331.214,19.979.341,7.167,2.957,10.693,8.3,12.163,6.437,1.773,12.252.105,15.819-5.371,3.522-5.408,6.432-11.218,9.538-16.892,2.609-4.765,5.757-9.079,10.949-11.161,9.544-3.826,19.019,1.57,22.156,12.413a36.1,36.1,0,0,1,1.137,11.875c-.214,4.44,1.85,7.327,6.044,8.583,9.8,2.934,19.994.193,19.848-11.92-.06-4.953.079-9.967.238-14.95.055-1.705-.223-3.263,2.432-3.255,2.586.008,2.444,1.461,2.488,3.222.15,5.981-.539,11.993.577,17.938,1.35,7.192,4.6,9.85,12.01,9.9,8.224.051,11.839-2.521,13.228-9.762,1.137-5.93.43-11.959.585-17.942.043-1.639-.366-3.3,2.345-3.355,2.692-.058,2.916,1.248,2.887,3.365-.074,5.329-.144,10.666.072,15.988.3,7.42,4.173,11.456,10.857,11.706,9.983.372,14.567-2.648,15.565-10.719,1.077-8.708-.576-17.226-2.4-25.7-.423-1.962-1.62-4.007,1.811-4.97,3.859-1.084,2.88,2.094,3.2,3.443,2.174,9.243,3.883,18.589,2.57,28.139-1.028,7.474-4.436,13.227-12.329,15.208-7.871,1.975-14.9,1.292-19.672-6.374-1.884-3.027-2.676-.6-3.81.746a18.44,18.44,0,0,1-20.3,5.5,11.393,11.393,0,0,1-6.728-5.551c-1.25-2.39-2.343-2.632-4.254-.234-6.6,8.277-19,9.37-26.4,2.154-2.431-2.372-3.049-1.584-4.685.547-6.886,8.977-18.11,10.771-25.743,4.319-3.315-2.8-4.935-6.6-6.242-10.595-.288-.881-.256-2.122-1.547-2.25s-1.513,1.079-2.019,1.887c-3.341,5.341-7.111,10.244-14.064,10.688-5.781.37-10.911-1.15-14.123-6.5-1.436-2.391-2.447-2.418-4.339-.178-7.94,9.4-19.3,9.108-27.392-.58-1.585-1.9-2.308-1.36-3.748.292-8.576,9.839-18.989,9.662-27.725-.472-1.964-2.279-2.648-.66-3.73.624a18.663,18.663,0,0,1-22.839,4.98,10.833,10.833,0,0,1-5.157-4.512c-1.413-2.722-2.481-3.67-5.086-.543-6.132,7.361-14.733,7.855-23.321,6.491-12.24-1.943-17.426-8.491-17.444-20.884Q1064.007,549.508,1064.021,537.764ZM1268.005,564.1c-.025-10.528-5.219-17.24-13.281-17.164-7.1.068-16.19,9.034-16.066,15.849.181,9.923,6.553,17.929,14.377,18.064C1262.21,581.009,1268.029,574.5,1268.005,564.1Z" transform="translate(-647.895 -133.819)" fill="#694310"/><path d="M1238.345,305.564c0,25.806-.09,51.613.1,77.417.028,3.8-.98,4.809-4.678,4.582-5.475-.336-10.989-.194-16.48-.033-2.383.07-3.42-.708-3.256-3.081.057-.829.006-1.665.006-2.5q0-76.419-.091-152.837c-.012-4.058.858-5.61,5.151-5.267a106.324,106.324,0,0,0,14.976.013c3.443-.212,4.389.743,4.366,4.286C1238.268,253.952,1238.346,279.758,1238.345,305.564Z" transform="translate(-647.895 -133.819)" fill="#694310"/><path d="M1667.2,538.288c0,8.163.061,16.327-.016,24.49-.089,9.589-4.256,15.653-12.425,18.334-10.807,3.546-18.875,1.7-24.52-6.109-1.788-2.473-2.268-1.734-3.755.092-8.061,9.9-22.8,10.18-30.552.455-2.027-2.542-2.532-1.245-3.9.339a18.463,18.463,0,0,1-20.693,5.6c-1.224-.459-2.8-.97-3.4-1.953-3.44-5.653-5.946-4.924-10.8-.61-7.7,6.842-17.945,4.6-24.067-3.8-.831-1.141-1.533-2.527-2.82-.509-5.082,7.973-13.023,8.462-21.206,7.906-3.82-.26-5.3.72-6.07,4.844-2.623,13.985-10.924,18.811-23.56,20.17-1.317.142-2.817.294-2.756-1.794.046-1.6-.51-3.526,2.041-3.769.166-.015.332-.021.5-.027,15.426-.527,19.33-11.271,19.567-23.22.214-10.825.006-21.659.239-32.483.041-1.9-2.088-5.544,2.63-5.362,4.592.177,2.294,3.745,2.353,5.615.275,8.655.262,17.326.048,25.985-.077,3.143.931,4.207,3.958,3.851a43.1,43.1,0,0,1,5-.034c11.345,0,14.773-3.4,14.962-14.928q.108-6.5,0-13c-.028-1.89.181-3.134,2.621-3.125,2.508.008,2.55,1.389,2.548,3.208,0,5.33-.166,10.676.176,15.987.535,8.308,4.36,11.822,12.289,11.853,9.011.036,12.44-3.078,13.46-11.709.61-5.158.253-10.308.467-15.455.066-1.583-.964-3.793,2.25-3.878,3.493-.093,2.515,2.288,2.588,4.076.23,5.646-.457,11.326.585,16.943,1.377,7.418,4.6,10.015,12.41,10.023,8.052.009,11.785-2.733,12.94-10.106,1.087-6.936.242-13.973.575-20.952.088-1.859-1.69-5.09,2.634-4.943,4.264.144,2.327,3.352,2.4,5.172.254,6.154,0,12.328.166,18.488.219,7.978,4.159,12.158,11.31,12.341,11.289.289,16.868-3.337,17.385-11.866.4-6.641.113-13.323.237-19.985.033-1.743-1-4.115,2.489-4.205,3.41-.087,2.683,2.111,2.706,3.984.076,6.329-.1,12.669.215,18.984.463,9.179,4.8,13.1,13.981,13.074a34.933,34.933,0,0,0,5.962-.338c8.191-1.45,11.475-5.176,11.54-13.575.131-16.659.038-33.32.111-49.98.006-1.336-.9-3.353,1.079-3.878,2.081-.552,4.259-.827,4.181,2.793C1667.067,520.292,1667.2,529.291,1667.2,538.288Z" transform="translate(-647.895 -133.819)" fill="#694310"/><path d="M1696.476,602.261c-.217-6.586.532-13.438,5.733-18.992,1.723-1.838,3.549-3.9,5.98-4.326,5.649-.983,4.492-3.967,3-7.682-3-7.49-3.695-15.183-.518-22.809a19.776,19.776,0,0,1,20.865-12.1,20.387,20.387,0,0,1,17.7,17.635,35.7,35.7,0,0,1-.228,10.948c-1.2,7.059,1.81,10.865,9.2,11.34,7.1.455,13.771-1.3,20.348-3.831,13.63-5.235,25.533-13.977,39.191-19.133.646-.244,1.224-.432,1.25-1.262.051-1.64-1.451-1.8-2.375-2.145a115.729,115.729,0,0,0-23.455-6.251c-6.393-.957-12.857-1.487-19.306-2.008-1.957-.158-3.039-.416-3.042-2.749,0-2.438,1.253-2.715,3.146-2.6,18.135,1.125,35.789,4.346,52.388,12.094,1.4.655,3.447,1.219,2.421,3.513-.806,1.8.272,4.3-3.49,4.9-8.622,1.363-15.927,6.259-23.415,10.489-10.81,6.106-21.52,12.412-34.035,14.583-8.125,1.41-15.661,1.3-20.676-6.707-1.025-1.635-2.025-1.244-3.208-.155-6.523,6.007-14.569,7.492-23.031,7.55-13.345.092-17.962,4.147-19.264,17.372a80.784,80.784,0,0,0-.131,9.481c.038,1.9-.634,2.63-2.6,2.638-2.075.009-2.543-.956-2.475-2.751C1696.539,607.143,1696.476,604.977,1696.476,602.261Zm17.3-43.329c1.941,19.081,4.053,20.089,20.885,14.9,8.277-2.552,11.751-11.557,9.179-20.569-2.287-8.015-8.973-12.559-16.886-11.476C1718.583,542.932,1713.593,549.424,1713.774,558.932Z" transform="translate(-647.895 -133.819)" fill="#694310"/><path d="M964.073,562.694c0-6.161.044-12.322-.024-18.482-.025-2.169.451-3.419,3.023-3.4,2.829.02,2.172,1.92,2.178,3.438.035,9.324.171,18.653-.062,27.972-.085,3.4,1.229,3.786,4.243,4.2,11.544,1.569,18.608-3.469,22.964-13.824,2.438-5.794,5.241-11.511,9.774-16.107,7.842-7.952,19.886-6.757,25.416,2.88,4.944,8.617,5.234,17.822,1.154,26.85a17.741,17.741,0,0,1-17.869,10.321c-7.6-.748-12.226-5.219-14.747-12.277-.519-1.452-.133-3.881-2.075-4.185-2.323-.364-2.574,2.267-3.44,3.691q-6.26,10.3-18.088,8.781c-5.174-.673-7.674.5-8.894,6.481-2.8,13.729-15.164,20.6-30.839,18.355-16.6-2.382-26-12.582-26.986-29.325a81.931,81.931,0,0,1,2.856-26.165c.521-1.948,1.147-3.028,3.3-2.5,2.108.516,2.343,1.65,1.77,3.679a77.39,77.39,0,0,0-2.682,22.705c.33,16.855,9.834,26.192,26.641,25.979,14.878-.188,21.869-7.054,22.29-22.079.158-5.657.025-11.322.025-16.983Zm66.888,1.736c.078-10.566-5.374-17.756-13.4-17.673-6.763.07-16.263,9.43-16.149,15.912.177,10.092,6.814,18.259,14.775,18.182C1025.142,580.765,1030.887,574.38,1030.961,564.43Z" transform="translate(-647.895 -133.819)" fill="#694310"/><path d="M766.965,576.3c3.8-.145,7.587.228,11.374-.906,9.541-2.858,13.834-11.416,10.256-20.68-2.872-7.435-5.439-14.99-8.446-22.369-1-2.468-.057-3.148,1.837-4.014,2.339-1.07,2.3.693,2.812,2.025,4.227,11.006,8.387,22.04,12.756,32.991,4.8,12.032,9.805,14.591,22.377,12.105,10.741-2.124,20.1-7.454,29.572-12.515,6.134-3.278,12.215-6.631,18.648-9.31.933-.389,2.642-.129,2.534-1.793-.1-1.468-1.691-1.479-2.661-1.853-13.442-5.2-27.493-7.434-41.794-8.369-2.083-.137-4.467.616-4.2-3.026.263-3.525,2.808-2.307,4.415-2.2,17.114,1.163,33.855,4.119,49.628,11.207,1.877.843,4.806.937,4.15,4.52-.516,2.82-1.382,4.327-4.642,5.014-10.226,2.153-18.678,8.31-27.66,13.234-9.308,5.1-18.713,9.842-29.362,11.674-10.893,1.874-16.709-.395-22.561-10.032-2.069-3.408-3.061-3.679-4.945.056-3.5,6.944-10.088,9.409-17.169,10.295-4.921.615-9.975.121-14.966.243-2.816.069-2.1-1.91-2.2-3.439-.1-1.588-.06-3.01,2.248-2.895C761.631,576.4,764.3,576.3,766.965,576.3Z" transform="translate(-647.895 -133.819)" fill="#694310"/><path d="M1432.83,601.719c13.922-.022,24.38-6.783,28.42-18.466.529-1.531,1.523-3.489.474-4.754-1.245-1.5-3.006.171-4.528.487-2.1.436-4.148,1.241-6.264,1.494-12.375,1.476-21.28-4.821-22.883-16.055-1.964-13.768,5.991-26.547,17.906-27.945,7.045-.826,12.966,1.91,17.1,7.982,10.172,14.945,6.766,42.874-6.716,54.818-10.788,9.558-29.349,11.1-43.5,3.625-11.866-6.272-18.6-20.5-16.667-35.692.607-4.765,1.662-9.484,2.732-14.173.385-1.689.2-4.375,3.5-3.487,3.062.824,2,2.712,1.5,4.658a69.31,69.31,0,0,0-2.624,16.694C1401.161,590.66,1412.572,601.751,1432.83,601.719Zm30.969-35.361c-.2-7.048-1.039-13.117-4.652-18.424-4.59-6.744-12.828-8.178-19.062-3.4-6.144,4.713-9,15.618-5.954,22.709,2.562,5.957,9.838,8.983,18.378,7.537,1.948-.33,3.829-1.037,5.76-1.487C1462.42,572.331,1464.822,570.176,1463.8,566.358Z" transform="translate(-647.895 -133.819)" fill="#694310"/><path d="M1864.34,558.794c.006,4.828.017,9.656,0,14.484-.006,1.6.085,3.081,2.264,2.989,4.973-.21,9.993.651,14.917-.6,5.968-1.512,8.6-4.634,9.438-10.729.863-6.3.129-12.64.612-18.927.147-1.911-2.271-5.512,2.283-5.668,4.649-.161,2.406,3.526,2.525,5.432.333,5.307-.182,10.673.247,15.966.965,11.908,4.578,14.919,16.584,14.547,10.777-.335,15.7-5.448,15.777-16.15a85.691,85.691,0,0,0-2.74-21.217c-.681-2.75.1-3.518,2.47-4.068,2.9-.674,2.3,1.715,2.626,2.981a90.123,90.123,0,0,1,2.988,23.665c-.144,9.933-4.411,16.314-12.834,19.224-11.394,3.937-18.409,2.258-25.164-6.088-.782-.965-1.511-2.186-2.6-.624-5.891,8.427-14.673,9-23.636,8.467-4.524-.267-6.162,1.052-7.022,5.668-2.489,13.356-11.479,18.16-23.173,19.371-1.552.16-3.027.216-3.047-2.1-.017-2.08.236-3.475,2.881-3.546,5.864-.159,11.18-1.9,14.859-6.8,3.447-4.585,4.3-10.016,4.334-15.585.064-10.987.043-21.974.057-32.962,0-1.165-.01-2.331.021-3.5.056-2.153,1.568-2.126,3.154-2.2,1.868-.083,2.2.917,2.192,2.47C1864.311,548.473,1864.334,553.634,1864.34,558.794Z" transform="translate(-647.895 -133.819)" fill="#694310"/><path d="M676.654,576.292a31.729,31.729,0,0,0,10.47-1.026c8.675-2.748,12.979-11.241,9.864-19.817-2.61-7.184-5.462-14.282-8.027-21.482-.644-1.808-3.019-4.141.883-5.54,3.853-1.383,3.095,2.009,3.73,3.55,4.683,11.366,8.7,22.989,13.484,34.327,5.146,12.182,16.314,11.817,25.44,7.372,4.755-2.317,6.086-6.864,6.215-11.717a89.66,89.66,0,0,0-2.579-22.243c-.47-2.075-1.418-4.154,1.952-4.892,3.684-.808,2.72,2.246,3.071,3.691a95.966,95.966,0,0,1,2.937,22.7c0,10.379-5.4,17.792-14.479,20.187-12.393,3.268-19.734.63-25.506-9.449-1.655-2.891-2.521-4.185-4.6-.22-3.752,7.162-10.511,9.935-18.069,10.711-4.618.474-9.327,0-13.985.183-2.507.1-2.559-1.24-2.609-3.09-.058-2.132.214-3.527,2.909-3.291C670.238,576.463,672.753,576.292,676.654,576.292Z" transform="translate(-647.895 -133.819)" fill="#694310"/><path d="M760.646,431.023a14.688,14.688,0,0,1-14.675-15.42,15.086,15.086,0,0,1,15.3-14.448c8.09.05,14.945,7.288,14.752,15.578A14.87,14.87,0,0,1,760.646,431.023Z" transform="translate(-647.895 -133.819)" fill="#694310"/><path d="M1890.691,225.421a14.353,14.353,0,0,1,14.335,14.68,14.56,14.56,0,0,1-14.92,14.666,14.935,14.935,0,0,1-14.162-15A14.648,14.648,0,0,1,1890.691,225.421Z" transform="translate(-647.895 -133.819)" fill="#694310"/><path d="M1836.576,239.817a14.129,14.129,0,0,1,13.961-14.4c8.387-.1,14.739,6.329,14.661,14.839a14.5,14.5,0,0,1-14.158,14.457C1842.617,254.835,1836.561,248.6,1836.576,239.817Z" transform="translate(-647.895 -133.819)" fill="#694310"/><path d="M1869.744,187.6c8.633-.014,14.338,5.665,14.358,14.292.019,8.53-5.78,14.466-14.228,14.562-8.161.093-14.371-6.113-14.474-14.465C1855.3,193.651,1861.318,187.611,1869.744,187.6Z" transform="translate(-647.895 -133.819)" fill="#694310"/><path d="M1332.245,516.42c-2.38-.662-4.52-1.428-4.425-4.446.1-3.033,1.864-4.694,4.665-4.527a4.2,4.2,0,0,1,4.14,4.613C1336.555,514.84,1334.723,516.025,1332.245,516.42Z" transform="translate(-647.895 -133.819)" fill="#694310"/><path d="M1887.281,528.687c-2.849-.507-4.726-1.709-4.776-4.526-.049-2.79,1.593-4.513,4.289-4.459,2.486.049,4.5,1.295,4.519,4.267C1891.335,526.859,1889.4,527.945,1887.281,528.687Z" transform="translate(-647.895 -133.819)" fill="#694310"/><path d="M1905.337,524.093c-.084,2.414-1.467,4.25-4.073,4.4a4.153,4.153,0,0,1-4.752-4.428,3.938,3.938,0,0,1,4.259-4.366C1903.2,519.739,1905.184,520.935,1905.337,524.093Z" transform="translate(-647.895 -133.819)" fill="#694310"/><path d="M1559.538,522.74c-.2,2.83-1.687,4.573-4.4,4.472-2.473-.093-4.542-1.306-4.465-4.3.072-2.777,1.7-4.448,4.348-4.495C1557.7,518.368,1559.175,520.146,1559.538,522.74Z" transform="translate(-647.895 -133.819)" fill="#694310"/><path d="M1569.171,527.339c-2.446-.541-4.568-1.41-4.5-4.41.06-2.78,1.685-4.464,4.33-4.509a4.152,4.152,0,0,1,4.457,4.377C1573.545,525.6,1571.836,526.987,1569.171,527.339Z" transform="translate(-647.895 -133.819)" fill="#694310"/><path d="M1459.54,519.216c-.442,2.637-1.99,4.318-4.726,4-2.49-.289-4.429-1.693-4.127-4.644.281-2.735,2.017-4.348,4.675-4.151C1457.983,514.616,1459.445,516.42,1459.54,519.216Z" transform="translate(-647.895 -133.819)" fill="#694310"/><path d="M1440.928,514.285c2.579.365,4.4,1.654,4.541,4.4.145,2.794-1.5,4.544-4.2,4.525-2.459-.017-4.565-1.173-4.6-4.168C1436.649,516.23,1438.342,514.881,1440.928,514.285Z" transform="translate(-647.895 -133.819)" fill="#694310"/><path d="M862.646,587.807c-.435,3.02-2.039,4.655-4.735,4.379-2.466-.253-4.455-1.609-4.167-4.583.264-2.729,1.977-4.37,4.621-4.2C860.976,583.565,862.363,585.453,862.646,587.807Z" transform="translate(-647.895 -133.819)" fill="#694310"/><path d="M743.584,590.578c2.646.421,4.339,2.085,4.309,4.609a4.246,4.246,0,0,1-4.489,4.285c-2.572.025-4.457-1.42-4.471-4.213C738.919,592.306,740.781,590.9,743.584,590.578Z" transform="translate(-647.895 -133.819)" fill="#694310"/><path d="M1111.138,523.727c-.136,2.866-1.663,4.6-4.2,4.749-2.777.165-4.792-1.458-4.826-4.379a4.236,4.236,0,0,1,4.389-4.394C1109.113,519.592,1110.6,521.382,1111.138,523.727Z" transform="translate(-647.895 -133.819)" fill="#694310"/><path d="M1926.552,515.6c2.877.364,4.6,1.88,4.572,4.794a3.93,3.93,0,0,1-4.076,4.087c-2.761.091-4.838-1.534-4.841-4.39C1922.205,517.549,1923.967,515.974,1926.552,515.6Z" transform="translate(-647.895 -133.819)" fill="#694310"/><path d="M1561.83,507.247c2.793.518,4.578,1.829,4.632,4.585s-1.582,4.54-4.26,4.447c-2.421-.083-4.444-1.27-4.42-4.312C1557.8,509.062,1559.643,507.978,1561.83,507.247Z" transform="translate(-647.895 -133.819)" fill="#694310"/><path d="M944.111,522.735c-.3,2.68-1.843,4.337-4.41,4.476s-4.528-1.249-4.668-3.981a4.256,4.256,0,0,1,4.435-4.8C942.066,518.371,943.452,520.327,944.111,522.735Z" transform="translate(-647.895 -133.819)" fill="#694310"/><path d="M1806.707,583.25c2.528.48,4.3,1.648,4.466,4.425.2,3.248-1.974,4.468-4.593,4.5-2.573.026-4.282-1.592-4.214-4.4C1802.432,585,1804.3,583.854,1806.707,583.25Z" transform="translate(-647.895 -133.819)" fill="#694310"/><path d="M1329.693,523.1c-.314,2.61-1.824,4.247-4.527,4.105-2.62-.137-4.368-1.769-4.167-4.514.187-2.542,1.623-4.523,4.448-4.284C1328.01,518.627,1329.578,520.26,1329.693,523.1Z" transform="translate(-647.895 -133.819)" fill="#694310"/><path d="M1339.25,527.328c-2.38-.6-4.53-1.322-4.435-4.4.086-2.8,1.628-4.445,4.259-4.512,2.679-.067,4.3,1.686,4.406,4.367C1343.587,525.572,1341.894,526.96,1339.25,527.328Z" transform="translate(-647.895 -133.819)" fill="#694310"/><path d="M1620.558,528.609c-2.522-.462-4.5-1.7-4.493-4.4.01-2.911,1.951-4.6,4.782-4.487a4.014,4.014,0,0,1,4.176,4.5C1624.9,526.925,1623.076,528.185,1620.558,528.609Z" transform="translate(-647.895 -133.819)" fill="#694310"/><path d="M1634.455,528.591c-2.627-.491-4.656-1.9-4.382-4.86a4.244,4.244,0,0,1,4.77-4.024c2.591.161,4.353,1.746,4.165,4.514C1638.832,526.807,1637.364,528.468,1634.455,528.591Z" transform="translate(-647.895 -133.819)" fill="#694310"/><path d="M734.1,594.833c-.284,2.993-1.962,4.6-4.487,4.625a4.2,4.2,0,0,1-4.549-4.67c.064-2.788,2.047-4.176,4.568-4.105C732.213,590.755,733.676,592.554,734.1,594.833Z" transform="translate(-647.895 -133.819)" fill="#694310"/><path d="M2136.075,644.488c-9.06,1.372-16.619-1.3-24.106-4.212-6.636-2.581-8.615-6-8.072-13.363,1.689-22.9,2.286-45.847,3.186-68.781.993-25.269,1.7-50.552,2.983-75.806,1.148-22.561,2.513-45.106,3.149-67.694.981-34.878,3.469-69.7,3.9-104.6.077-6.3.426-12.6.4-18.9-.017-4.2,1.277-6.093,5.649-4.307a18.887,18.887,0,0,0,2.873.847c8.827,2.05,8.621,2.057,9.172,11.328.9,15.13,3.835,30.016,5.96,44.993,4.288,30.227,9.022,60.391,13.479,90.6,3.825,25.924,7.42,51.883,11.3,77.8,3.4,22.686,7.4,45.287,10.476,68.015,1.995,14.735,4.42,29.388,6.861,44.044.424,2.548-1.022,3.193-2.569,4.151-10.571,6.544-21.4,12.651-33.526,15.744C2143.453,645.293,2139.266,644.488,2136.075,644.488Z" transform="translate(-647.895 -133.819)" fill="#e0b23f"/><path d="M2522.924,406.016c-.724,16.482-7.746,27.044-17.32,36.317-8.641,8.37-19.71,12.922-29.812,19-1.654.994-2.771.147-3.977-.883-12.89-11.012-25.606-22.239-38.772-32.912-8.937-7.246-17.886-14.477-26.784-21.775q-30.2-24.768-60.548-49.35c-13.441-10.882-27.054-21.549-40.515-32.4-17.092-13.785-34.061-27.721-51.169-41.485q-22.15-17.822-44.539-35.343c-1.844-1.442-1.855-2.9-.829-4.179,2.663-3.328,1.372-8.665,5.735-10.981.368-.2,1.242.352,1.776.71,15.374,10.308,32.3,17.868,48.194,27.244,25.557,15.078,52.428,27.664,78.477,41.813,55.844,30.334,112.012,60.072,168.005,90.133C2517.45,395.461,2523.41,399.766,2522.924,406.016Z" transform="translate(-647.895 -133.819)" fill="#e0b23f"/><path d="M2190.423,562.3c-1.8-6.139-1.811-12.51-2.64-18.772-1.007-7.609-2.229-15.208-3.432-22.764-2.184-13.722-4.3-27.464-6.592-41.172-2.154-12.883-4.175-25.776-5.938-38.724-2.359-17.33-5.332-34.577-8.117-51.848q-5.871-36.4-11.887-72.781c-1.176-7.046-2.761-14.026-4.19-21.03-.71-3.479-.559-5.891,4.06-6.512,8.692-1.168,8.52-1.382,11.827,7.075,10.518,26.9,21,53.811,31.774,80.608,12.328,30.665,25.061,61.168,37.418,91.822,10.685,26.507,21.093,53.125,31.618,79.7,3.108,7.849,6.012,15.786,9.39,23.516,1.339,3.066.629,4.237-2.1,5.769q-34.8,19.547-69.433,39.4c-2.934,1.677-3.939,1.155-4.365-2.233-1.843-14.66-4-29.281-5.779-43.949C2191.7,567.609,2190.168,565.148,2190.423,562.3Z" transform="translate(-647.895 -133.819)" fill="#e0b23f"/><path d="M2457.958,470.079c-.192,1.494-1.234,2.1-2.457,2.791-22.466,12.7-44.951,25.375-67.285,38.307-3.613,2.092-5.253,1.449-7.632-1.7q-39.96-52.94-80.254-105.626c-12.14-15.784-25.051-30.973-37.46-46.553-12.326-15.477-24.135-31.379-36.812-46.559q-9.851-11.8-19.438-23.8c-4.32-5.424-7.319-11.818-12.353-16.763-1.76-1.729-1.491-3.571.518-5.531,6.221-6.07,6.2-6.259,12.883-.734,21.946,18.144,44.237,35.9,65.612,54.694,16.9,14.861,35.162,28,52.063,42.805,18.985,16.632,39.383,31.519,58.566,47.91,22.91,19.576,46.658,38.136,70.238,56.895C2455.559,467.338,2457.237,468.219,2457.958,470.079Z" transform="translate(-647.895 -133.819)" fill="#e0b23f"/><path d="M2291.287,565.78c-2.183-.214-2.112-2.022-2.625-3.315-7.111-17.938-13.965-35.981-21.348-53.805-8.949-21.6-18.021-43.163-26.988-64.753-11.8-28.414-23.05-57.061-35.119-85.372-9.981-23.414-19.776-46.908-30.407-70.04-2.375-5.167.638-10.1,6.34-10.368,1.886-.089,2.479,1.463,3.348,2.609q16.751,22.086,33.468,44.2,35.44,46.707,70.929,93.379,36.841,48.245,73.907,96.318c5.719,7.456,5.7,7.5-2.464,12.14q-32.352,18.4-64.722,36.761C2294.164,564.349,2292.664,565.066,2291.287,565.78Z" transform="translate(-647.895 -133.819)" fill="#e0b23f"/><path d="M2137,150.667c28.333-.621,58.577,26.357,60.283,52.224,3.092,46.893-29.093,67.379-56.123,68.1-33.309.885-62.02-26.1-63.57-58.032C2076.112,182.588,2103.477,150.2,2137,150.667Z" transform="translate(-647.895 -133.819)" fill="#e0b23f"/><path d="M2077.475,428.374q0-80.928.04-161.855c0-1.513-.966-3.7,1.1-4.4,1.77-.6,2.974,1.182,4.1,2.327a60.661,60.661,0,0,0,18.045,13.189c2.551,1.157,3.193,3.039,3.081,5.626-1.488,34.248-2.414,68.517-4.441,102.744-1.052,17.776-1.65,35.581-2.341,53.377-.547,14.084-1.4,28.171-2.286,42.215-1.3,20.673-1.445,41.373-2.651,62.037-1.3,22.2-2.162,44.433-3.255,66.649-.061,1.234.615,3.1-.967,3.52-1.943.514-2.868-1.4-3.64-2.786a50.956,50.956,0,0,1-6.439-25.752c.269-52.3.13-104.592.13-156.889Z" transform="translate(-647.895 -133.819)" fill="#e0b23f"/><path d="M2513.438,374.222c-27.5-14.746-54.919-29.54-82.423-44.166Q2379.52,302.67,2327.752,275.8c-36.65-18.942-72.752-38.956-109.482-57.766-2.644-1.354-3.461-3.2-3.293-6.006a56.547,56.547,0,0,0-4.4-24.864c-.457-1.125-2.474-2.294-.394-3.761,1.615-1.139,2.826-.01,4.078.743,9.558,5.745,19.092,11.53,28.662,17.255q27.86,16.663,55.745,33.282,65.938,39.509,131.856,79.053c19.635,11.757,39.366,23.354,58.979,35.146,8.741,5.256,16.751,11.452,22.547,20.04C2513.1,370.466,2514.651,372.113,2513.438,374.222Z" transform="translate(-647.895 -133.819)" fill="#e0b23f"/></svg>